<?xml version="1.0" encoding="UTF-8" standalone="no"?>
<svg width="664px" height="584px" viewBox="0 0 664 584" version="1.1" xmlns="http://www.w3.org/2000/svg" xmlns:xlink="http://www.w3.org/1999/xlink" xmlns:sketch="http://www.bohemiancoding.com/sketch/ns">
    <!-- Generator: Sketch 3.3.2 (12043) - http://www.bohemiancoding.com/sketch -->
    <title>social-icons</title>
    <desc>Created with Sketch.</desc>
    <defs></defs>
    <g id="Social-Icons" stroke="none" stroke-width="1" fill="none" fill-rule="evenodd" sketch:type="MSPage">
        <g id="social-icons" sketch:type="MSArtboardGroup">
            <rect id="background" sketch:type="MSShapeGroup" x="0" y="0" width="724" height="484"></rect>
            <text id="source" sketch:type="MSTextLayer" font-family="Helvetica" font-size="13" font-weight="normal" sketch:alignment="middle" fill="#999999">
                <tspan x="223.031494" y="557">https://github.com/konsav/social-icons</tspan>
            </text>
            <g id="facebook" sketch:type="MSLayerGroup" transform="translate(40.000000, 40.000000)">
                <rect id="Rectangle" sketch:type="MSShapeGroup" x="0" y="0" width="44" height="44"></rect>
                <circle id="Oval" stroke="#000000" stroke-width="2" sketch:type="MSShapeGroup" cx="22" cy="22" r="22"></circle>
                <path d="M23.3147057,35 L18.4372418,35 L18.4372418,23.4985483 L16,23.4985483 L16,19.535534 L18.4372418,19.535534 L18.4372418,17.1562737 C18.4372418,13.9234411 19.8127074,12 23.7230238,12 L26.9776468,12 L26.9776468,15.964466 L24.9435074,15.964466 C23.4212558,15.964466 23.3206665,16.5182719 23.3206665,17.5518493 L23.3139606,19.535534 L27,19.535534 L26.5685836,23.4985483 L23.3139606,23.4985483 L23.3139606,35 L23.3147057,35 Z" id="Shape" fill="#000000" sketch:type="MSShapeGroup"></path>
            </g>
            <g id="twitter" sketch:type="MSLayerGroup" transform="translate(100.000000, 40.000000)">
                <rect id="Rectangle" sketch:type="MSShapeGroup" x="0" y="0" width="44" height="44"></rect>
                <circle id="Oval" stroke="#000000" stroke-width="2" sketch:type="MSShapeGroup" cx="22" cy="22" r="22"></circle>
                <path d="M30.526149,16.8457316 C31.4160944,16.2841254 32.0989611,15.3936155 32.41944,14.3328037 C31.5861948,14.8541095 30.6654341,15.2311137 29.6830428,15.4352159 C28.899102,14.5512061 27.7786582,14 26.5386512,14 C24.1597112,14 22.231907,16.0345226 22.231907,18.5435505 C22.231907,18.8997544 22.2676528,19.2468583 22.3416094,19.578362 C18.762106,19.3885599 15.5881317,17.5815398 13.4618771,14.8307092 C13.0908611,15.5041167 12.8788519,16.2841254 12.8788519,17.1161346 C12.8788519,18.6917521 13.6393731,20.0827676 14.7955626,20.8991767 C14.0892763,20.8757764 13.4248987,20.6690741 12.8431062,20.3310703 L12.8431062,20.386971 C12.8431062,22.5891954 14.3271703,24.4261158 16.3005811,24.8421205 C15.9381933,24.9487217 15.558549,25.0020222 15.1641134,25.0020222 C14.8867758,25.0020222 14.6156013,24.9747219 14.3542877,24.9214213 C14.9015672,26.7258414 16.4928685,28.041456 18.3787639,28.0765564 C16.9033281,29.29597 15.0457827,30.021378 13.0279979,30.021378 C12.6804015,30.021378 12.3365029,30.0018778 12,29.9589773 C13.9068498,31.2472916 16.1711569,32 18.6043317,32 C26.5300229,32 30.8614193,25.0761231 30.8614193,19.0713563 C30.8614193,18.8737542 30.858954,18.677452 30.8503258,18.4837498 C31.6921993,17.8428427 32.4243705,17.0420338 33,16.1307237 C32.2271527,16.4921277 31.3963726,16.7365304 30.526149,16.8457316 Z" id="Shape" fill="#000000" sketch:type="MSShapeGroup"></path>
            </g>
            <g id="instagram" sketch:type="MSLayerGroup" transform="translate(220.000000, 40.000000)">
                <rect id="Rectangle" sketch:type="MSShapeGroup" x="0" y="0" width="44" height="44"></rect>
                <circle id="Oval" stroke="#000000" stroke-width="2" sketch:type="MSShapeGroup" cx="22" cy="22" r="22"></circle>
                <path d="M28.4414981,11.5 L15.5585019,11.5 C13.3212018,11.5 11.5,13.3199671 11.5,15.5585019 L11.5,28.4414981 C11.5,30.6800329 13.3212018,32.5 15.5585019,32.5 L28.4414981,32.5 C30.6787982,32.5 32.5,30.6800329 32.5,28.4414981 L32.5,15.5585019 C32.5,13.3199671 30.6787982,11.5 28.4414981,11.5 L28.4414981,11.5 Z M29.6058325,13.9212723 L30.0700847,13.9188029 L30.0700847,17.4784807 L26.5215193,17.4895931 L26.5091722,13.9299153 L29.6058325,13.9212723 L29.6058325,13.9212723 Z M19.0033514,19.844191 C19.6750353,18.9132173 20.7665216,18.303269 22,18.303269 C23.2334784,18.303269 24.3249647,18.9132173 24.9966486,19.844191 C25.4349718,20.4516698 25.696731,21.1949671 25.696731,22 C25.696731,24.0372766 24.0385113,25.6954962 22,25.6954962 C19.9627234,25.6954962 18.3045038,24.0372766 18.3045038,22 C18.3045038,21.1949671 18.5662629,20.4516698 19.0033514,19.844191 L19.0033514,19.844191 Z M30.4540804,28.4414981 C30.4540804,29.5515052 29.5515052,30.4540804 28.4414981,30.4540804 L15.5585019,30.4540804 C14.4484948,30.4540804 13.5459196,29.5515052 13.5459196,28.4414981 L13.5459196,19.844191 L16.6820908,19.844191 C16.4104539,20.510936 16.2585842,21.238182 16.2585842,22 C16.2585842,25.1658043 18.8341957,27.7426505 22,27.7426505 C25.167039,27.7426505 27.7426505,25.1658043 27.7426505,22 C27.7426505,21.238182 27.5883114,20.510936 27.3191439,19.844191 L30.4540804,19.844191 L30.4540804,28.4414981 L30.4540804,28.4414981 Z" id="Shape" fill="#000000" sketch:type="MSShapeGroup"></path>
            </g>
            <g id="googleplus" sketch:type="MSLayerGroup" transform="translate(160.000000, 40.000000)">
                <rect id="Rectangle" sketch:type="MSShapeGroup" x="0" y="0" width="44" height="44"></rect>
                <circle id="Oval" stroke="#000000" stroke-width="2" sketch:type="MSShapeGroup" cx="22" cy="22" r="22"></circle>
                <path d="M18.4851046,20.3168153 L18.4851046,23.6831847 C18.4851046,23.6831847 21.7448888,23.6785506 23.072238,23.6785506 C22.3532848,25.861229 21.2357958,27.0495541 18.4851046,27.0495541 C15.7013124,27.0495541 13.5285642,24.7887574 13.5285642,21.999669 C13.5285642,19.2112426 15.7013124,16.9504459 18.4851046,16.9504459 C19.956774,16.9504459 20.9074341,17.4688072 21.7793138,18.1910705 C22.4770824,17.4919779 22.4188247,17.3920129 24.1943612,15.7118073 C22.6869426,14.3374547 20.6836715,13.5 18.4851046,13.5 C13.7993302,13.5 10,17.3052884 10,21.999669 C10,26.6940496 13.7993302,30.5 18.4851046,30.5 C25.4892714,30.5 27.2012539,24.3902216 26.6339032,20.3168153 L18.4851046,20.3168153 Z M33.774446,20.4849683 L33.774446,17.5396433 L31.67452,17.5396433 L31.67452,20.4849683 L28.6497527,20.4849683 L28.6497527,22.5888664 L31.67452,22.5888664 L31.67452,25.6189299 L33.774446,25.6189299 L33.774446,22.5888664 L36.7144749,22.5888664 L36.7144749,20.4849683 L33.774446,20.4849683 Z" id="Shape" fill="#000000" sketch:type="MSShapeGroup"></path>
            </g>
            <g id="linkedin" sketch:type="MSLayerGroup" transform="translate(400.000000, 40.000000)">
                <rect id="Rectangle" sketch:type="MSShapeGroup" x="0" y="0" width="44" height="44"></rect>
                <circle id="Oval" stroke="#000000" stroke-width="2" sketch:type="MSShapeGroup" cx="22" cy="22" r="22"></circle>
                <path d="M12.5044685,18.4131131 L16.4026341,18.4131131 L16.4026341,31.9987194 L12.5044685,31.9987194 L12.5044685,18.4131131 Z M14.3541863,16.7137918 L14.3259643,16.7137918 C12.9148636,16.7137918 12,15.6752465 12,14.3600973 C12,13.0180561 12.9419097,12 14.3812324,12 C15.8193791,12 16.7036689,13.0154949 16.7318909,14.3562556 C16.7318909,15.6714048 15.8193791,16.7137918 14.3541863,16.7137918 L14.3541863,16.7137918 Z M32,32 L27.5797272,32 L27.5797272,24.9683698 C27.5797272,23.1281854 26.8882879,21.8732232 25.3678269,21.8732232 C24.2048448,21.8732232 23.5580903,22.7196824 23.2570555,23.537969 C23.1441675,23.8299398 23.1618062,24.2384428 23.1618062,24.6482264 L23.1618062,32 L18.7826905,32 C18.7826905,32 18.8391345,19.5451402 18.7826905,18.4131131 L23.1618062,18.4131131 L23.1618062,20.5452683 C23.420508,19.6130106 24.8198495,18.2824946 27.0529163,18.2824946 C29.8233772,18.2824946 32,20.2379306 32,24.4446152 L32,32 L32,32 Z" id="Shape" fill="#000000" sketch:type="MSShapeGroup"></path>
            </g>
            <g id="aboutme" sketch:type="MSLayerGroup" transform="translate(460.000000, 40.000000)">
                <rect id="Rectangle" sketch:type="MSShapeGroup" x="0" y="0" width="44" height="44"></rect>
                <circle id="Oval" stroke="#000000" stroke-width="2" sketch:type="MSShapeGroup" cx="22" cy="22" r="22"></circle>
                <path d="M21.4054512,28.1880716 L21.4054512,21.0683499 C21.4054512,19.8930544 20.885221,19.1020297 19.5974484,19.1020297 C18.5351296,19.1020297 17.5396351,19.8252933 17.0649953,20.5486818 L17.0649953,28.1880716 L14.6911719,28.1880716 L14.6911719,21.0683499 C14.6911719,19.8930544 14.1940492,19.1020297 12.9050274,19.1020297 C11.8427087,19.1020297 10.8709462,19.8476513 10.3731989,20.5486818 L10.3731989,28.1880716 L8,28.1880716 L8,17.2710443 L10.3731989,17.2710443 L10.3731989,18.7404916 C10.8484632,18.0848017 12.2730071,17 13.9454878,17 C15.5730026,17 16.5678726,17.8136325 16.9294732,18.989053 C17.5396351,18.0170406 18.9866619,17 20.6366597,17 C22.6263996,17 23.7792747,18.0848017 23.7792747,20.2999955 L23.7792747,28.1880716 L21.4054512,28.1880716 Z M25.1032698,22.7184726 C25.1032698,19.5538118 27.4096445,17 30.6421912,17 C33.9197038,17 36,19.4859259 36,22.9216934 L36,23.5094348 L27.5901325,23.5094348 C27.771245,25.1374493 28.9915689,26.5158407 31.0493822,26.5158407 C32.1341839,26.5158407 33.3776152,26.0859794 34.1688897,25.2947674 L35.2530669,26.8543962 C34.1457822,27.8946692 32.5401258,28.4596779 30.8226792,28.4596779 C27.5220592,28.4596779 25.1032698,26.1765357 25.1032698,22.7184726 Z M30.6197083,18.9438997 C28.6074854,18.9438997 27.6575813,20.503591 27.5676496,21.8143463 L33.7167328,21.8143463 C33.648035,20.5259491 32.7668287,18.9438997 30.6197083,18.9438997 Z" id="Shape" fill="#000000" sketch:type="MSShapeGroup"></path>
            </g>
            <g id="medium" sketch:type="MSLayerGroup" transform="translate(280.000000, 100.000000)">
                <rect id="Rectangle" sketch:type="MSShapeGroup" x="0" y="0" width="44" height="44"></rect>
                <circle id="Oval" stroke="#000000" stroke-width="2" sketch:type="MSShapeGroup" cx="22" cy="22" r="22"></circle>
                <path d="M32,16.3569604 L31.2094313,16.3569604 C30.9158576,16.3569604 30.4997688,16.7856048 30.4997688,17.0600774 L30.4997688,26.9936492 C30.4997688,27.2681218 30.9158576,27.6418717 31.2094313,27.6418717 L32,27.6418717 L32,30 L24.832871,30 L24.832871,27.6418717 L26.3331022,27.6418717 L26.3331022,17.1990656 L26.2602866,17.1990656 L22.7570504,30 L20.0455386,30 L16.5873786,17.1990656 L16.4995377,17.1990656 L16.4995377,27.6418717 L17.9997688,27.6418717 L17.9997688,30 L12,30 L12,27.6418717 L12.7686084,27.6418717 C13.0852982,27.6418717 13.5002312,27.2681218 13.5002312,26.9936492 L13.5002312,17.0600774 C13.5002312,16.7856048 13.0852982,16.3569604 12.7686084,16.3569604 L12,16.3569604 L12,14 L19.5023116,14 L21.9664817,23.2631579 L22.0335183,23.2631579 L24.5196486,14 L32,14 L32,16.3569604" id="Shape" fill="#000000" sketch:type="MSShapeGroup"></path>
            </g>
            <g id="mail" sketch:type="MSLayerGroup" transform="translate(160.000000, 160.000000)">
                <rect id="Rectangle" sketch:type="MSShapeGroup" x="0" y="0" width="44" height="44"></rect>
                <circle id="Oval" stroke="#000000" stroke-width="2" sketch:type="MSShapeGroup" cx="22" cy="22" r="22"></circle>
                <path d="M13.1115479,18.9319176 C13.389863,19.1136566 14.228726,19.6535732 15.6282877,20.5512492 C17.0278493,21.4489252 18.0999726,22.1401747 18.8448082,22.6248583 C18.9266301,22.6779992 19.1005205,22.7934864 19.3664795,22.9714595 C19.6324384,23.149572 19.8534932,23.293652 20.0293425,23.4034207 C20.2053425,23.5131893 20.4181096,23.6363478 20.6677945,23.7726171 C20.9174795,23.9088864 21.1528493,24.0112628 21.3737534,24.0791882 C21.5948082,24.1475321 21.7994384,24.1814251 21.9876438,24.1814251 L22,24.1814251 L22.0123562,24.1814251 C22.2005616,24.1814251 22.4051918,24.1475321 22.6262466,24.0791882 C22.8471507,24.0112628 23.0826712,23.908747 23.3322055,23.7726171 C23.5817397,23.6362083 23.7945068,23.5131893 23.9705068,23.4034207 C24.1465068,23.293652 24.367411,23.149572 24.6333699,22.9714595 C24.8993288,22.7933469 25.0733699,22.6779992 25.1551918,22.6248583 C25.9080137,22.1400352 27.8233699,20.9090085 30.9006575,18.9316387 C31.4981233,18.545426 31.9971918,18.0794323 32.3983151,17.5339366 C32.799589,16.9887198 33,16.4167233 33,15.8182262 C33,15.3182 32.8054658,14.8901442 32.4166986,14.5340586 C32.0279315,14.177973 31.5674384,14 31.0356712,14 L12.9641781,14 C12.3340137,14 11.8491096,14.196942 11.5094658,14.5908259 C11.1698219,14.9848493 11,15.4773437 11,16.0681695 C11,16.5454609 11.2251233,17.0626427 11.6752192,17.6194362 C12.1253151,18.1762296 12.6041918,18.6137699 13.1115479,18.9319176 Z M31.7722192,20.1477413 C29.0879178,21.8294193 27.0497534,23.1363216 25.6586301,24.0681695 C25.1921096,24.3863173 24.813589,24.6345869 24.5229178,24.8124205 C24.2323973,24.990533 23.8457397,25.1722719 23.3627945,25.3579162 C22.88,25.5435605 22.4299041,25.6363129 22.0125068,25.6363129 L22,25.6363129 L21.9876438,25.6363129 C21.5702466,25.6363129 21.12,25.5435605 20.6372055,25.3579162 C20.154411,25.1722719 19.7676027,24.990533 19.4770822,24.8124205 C19.1865616,24.6345869 18.8080411,24.3863173 18.3415205,24.0681695 C17.2365479,23.3182 15.2027534,22.0112977 12.2399863,20.1477413 C11.7734658,19.8599997 11.360137,19.5302753 11,19.1591262 L11,28.1816343 C11,28.6818 11.192274,29.1097163 11.5769726,29.4658019 C11.9616712,29.822027 12.4241233,30 12.9643288,30 L31.0358219,30 C31.5758767,30 32.0383288,29.822027 32.4230274,29.4658019 C32.8078767,29.1095769 33,28.6818 33,28.1816343 L33,19.1591262 C32.648,19.522604 32.2388904,19.8523284 31.7722192,20.1477413 Z" id="Shape" fill="#000000" sketch:type="MSShapeGroup"></path>
            </g>
        </g>
    </g>
</svg>